<?xml version="1.0" encoding="UTF-8"?>
<svg width="2048" height="2048" enable-background="new" version="1.1" viewBox="0 0 2048 2048" xml:space="preserve" xmlns="http://www.w3.org/2000/svg" xmlns:cc="http://creativecommons.org/ns#" xmlns:dc="http://purl.org/dc/elements/1.1/" xmlns:rdf="http://www.w3.org/1999/02/22-rdf-syntax-ns#"><metadata><rdf:RDF><cc:Work rdf:about=""><dc:format>image/svg+xml</dc:format><dc:type rdf:resource="http://purl.org/dc/dcmitype/StillImage"/><dc:title/><cc:license rdf:resource=""/></cc:Work></rdf:RDF></metadata><g><ellipse cx="1017.0833" cy="1024.7806" rx="897.42633" ry="891.29016" fill="#7a4900" stroke-width="1.03740144"/><path d="m138.96986 1024.3056c0.88787-488.56113 393.39016-884.83122 884.45784-885.28454 488.3745-0.45452 885.4046 392.21686 885.5779 884.72454 0.1745 492.1344-396.2434 885.4179-885.0179 885.2845-491.12102-0.1294-883.80454-396.1767-885.01784-884.7245m-138.96986-0.2231c1.2745948 563.666 453.41533 1023.8944 1024.1744 1023.9211 568.3058 0.025 1023.8011-457.3619 1023.7744-1024.0277-0.0253-566.54587-455.4019-1024.014431-1023.8677-1023.9211-571.09243 0.09013108-1022.88113 460.6551501-1024.0811 1024.0277" fill="#a16000" stroke-width="1.33329999"/><g transform="matrix(.82431272 0 0 -.82493938 1023.1211 1897.8304)" fill="#cc7f0c"><path d="m0 0c2.627 0.986 5.448 1.955 8.199 3.093 44.631 18.456 89.256 36.927 133.88 55.407 199.4 82.589 398.8 165.21 598.26 247.67 6.325 2.615 10.102 6.342 12.723 12.733 25.644 62.561 51.586 125 77.464 187.46 75.089 181.24 150.16 362.49 225.39 543.68 2.623 6.314 2.812 11.66 0.151 18.037-30.649 73.468-61.044 147.04-91.515 220.58-70.505 170.16-141.06 340.3-211.36 510.55-2.821 6.831-6.888 10.536-13.518 13.235-37.636 15.319-75.11 31.038-112.65 46.59-206.17 85.407-412.35 170.78-618.46 256.32-6.067 2.518-11.136 2.388-17.116-0.122-43.306-18.169-86.737-36.038-130.12-54.015-200.01-82.871-400-165.79-600.09-248.46-7.415-3.064-11.687-7.368-14.681-14.722-19.717-48.432-39.835-96.701-59.845-145.01-60.415-145.86-120.84-291.72-181.26-437.57-20.395-49.234-40.71-98.502-61.3-147.65-2.494-5.954-2.864-11.075-0.079-17 4.247-9.033 7.758-18.412 11.583-27.644 47.44-114.46 94.901-228.92 142.31-343.39 49.962-120.63 99.917-241.26 149.7-361.96 2.382-5.776 5.904-9.014 11.546-11.278 22.256-8.928 44.367-18.217 66.524-27.394 129.86-53.787 259.71-107.58 389.57-161.38 92.314-38.245 184.62-76.506 276.94-114.75 2.459-1.018 4.965-1.923 7.768-3.004m1204.4 1058.8c-1.987-5.696-3.396-10.477-5.292-15.057-47.378-114.49-94.809-228.96-142.23-343.43-65.9-159.09-131.88-318.16-197.52-477.35-4.678-11.344-11.621-18.397-22.935-23.074-273.34-112.99-546.61-226.17-819.77-339.59-11.71-4.862-21.863-4.639-33.462 0.176-272.87 113.26-545.82 226.32-818.87 339.15-11.67 4.822-18.88 11.955-23.708 23.636-112.97 273.35-226.17 546.6-339.58 819.77-4.719 11.368-4.537 21.246 0.153 32.545 113.52 273.48 226.81 547.06 339.96 820.7 4.386 10.607 11.008 17.287 21.678 21.698 274.26 113.39 548.44 226.96 822.54 340.74 11.142 4.625 20.685 3.641 31.543-0.867 271.94-112.89 543.99-225.52 816.02-338.2 1.539-0.638 3.032-1.419 4.617-1.904 10.693-3.275 16.962-10.465 21.157-20.836 17.108-42.301 34.754-84.385 52.219-126.54 95.739-231.1 191.49-462.19 287.18-693.31 2.515-6.075 4.307-12.449 6.286-18.246" fill="#cc7f0c"/></g><path d="m443.30102 877.45591h64.52211v387.13269h-64.52211a64.444814 64.444814 0 0 1-64.5221-64.5221v-258.0885a64.444814 64.444814 0 0 1 64.5221-64.52209zm1032.35378-96.78318v548.43797a129.17183 129.17183 0 0 1-129.0443 129.0443h-645.22101a129.17183 129.17183 0 0 1-129.04426-129.0443v-548.43797a161.25288 161.25288 0 0 1 161.30526-161.3053h225.8274v-129.04432a64.52212 64.52212 0 0 1 129.04421 0v129.04432h225.8274a161.25288 161.25288 0 0 1 161.3053 161.3053zm-564.56851 161.30527a80.65265 80.65265 0 1 0-80.6526 80.6528 80.646601 80.646601 0 0 0 80.6526-80.6528zm-16.1305 258.0885h-129.0442v64.5221h129.0442zm193.56631 0h-129.04421v64.5221h129.04421zm209.6969-258.0885a80.65265 80.65265 0 1 0-80.6527 80.6528 80.646601 80.646601 0 0 0 80.6527-80.6528zm-16.1306 258.0885h-129.0442v64.5221h129.0442zm387.1327-258.0885v258.0885a64.444814 64.444814 0 0 1-64.5221 64.5221h-64.5221v-387.13269h64.5221a64.444814 64.444814 0 0 1 64.5221 64.52209z" fill="#cc7f0c" stroke-width="2.01631618"/></g></svg>
