<?xml version="1.0" encoding="UTF-8"?>
<svg width="2048" height="2048" enable-background="new" version="1.1" viewBox="0 0 2048 2048" xml:space="preserve" xmlns="http://www.w3.org/2000/svg" xmlns:cc="http://creativecommons.org/ns#" xmlns:dc="http://purl.org/dc/elements/1.1/" xmlns:rdf="http://www.w3.org/1999/02/22-rdf-syntax-ns#"><metadata><rdf:RDF><cc:Work rdf:about=""><dc:format>image/svg+xml</dc:format><dc:type rdf:resource="http://purl.org/dc/dcmitype/StillImage"/><dc:title/><cc:license rdf:resource=""/></cc:Work></rdf:RDF></metadata><g><ellipse cx="1017.0833" cy="1024.7806" rx="897.42633" ry="891.29016" fill="#422f4f" stroke-width="1.03740144"/><path d="m138.96986 1024.3056c0.88787-488.56113 393.39016-884.83122 884.45784-885.28454 488.3745-0.45452 885.4046 392.21686 885.5779 884.72454 0.1745 492.1344-396.2434 885.4179-885.0179 885.2845-491.12102-0.1294-883.80454-396.1767-885.01784-884.7245m-138.96986-0.2231c1.2745948 563.666 453.41533 1023.8944 1024.1744 1023.9211 568.3058 0.025 1023.8011-457.3619 1023.7744-1024.0277-0.0253-566.54587-455.4019-1024.014431-1023.8677-1023.9211-571.09243 0.09013108-1022.88113 460.6551501-1024.0811 1024.0277" fill="#4c335d" stroke-width="1.33329999"/><g transform="matrix(.82431272 0 0 -.82493938 1023.1211 1897.8304)" fill="#875ea4"><path d="m0 0c2.627 0.986 5.448 1.955 8.199 3.093 44.631 18.456 89.256 36.927 133.88 55.407 199.4 82.589 398.8 165.21 598.26 247.67 6.325 2.615 10.102 6.342 12.723 12.733 25.644 62.561 51.586 125 77.464 187.46 75.089 181.24 150.16 362.49 225.39 543.68 2.623 6.314 2.812 11.66 0.151 18.037-30.649 73.468-61.044 147.04-91.515 220.58-70.505 170.16-141.06 340.3-211.36 510.55-2.821 6.831-6.888 10.536-13.518 13.235-37.636 15.319-75.11 31.038-112.65 46.59-206.17 85.407-412.35 170.78-618.46 256.32-6.067 2.518-11.136 2.388-17.116-0.122-43.306-18.169-86.737-36.038-130.12-54.015-200.01-82.871-400-165.79-600.09-248.46-7.415-3.064-11.687-7.368-14.681-14.722-19.717-48.432-39.835-96.701-59.845-145.01-60.415-145.86-120.84-291.72-181.26-437.57-20.395-49.234-40.71-98.502-61.3-147.65-2.494-5.954-2.864-11.075-0.079-17 4.247-9.033 7.758-18.412 11.583-27.644 47.44-114.46 94.901-228.92 142.31-343.39 49.962-120.63 99.917-241.26 149.7-361.96 2.382-5.776 5.904-9.014 11.546-11.278 22.256-8.928 44.367-18.217 66.524-27.394 129.86-53.787 259.71-107.58 389.57-161.38 92.314-38.245 184.62-76.506 276.94-114.75 2.459-1.018 4.965-1.923 7.768-3.004m1204.4 1058.8c-1.987-5.696-3.396-10.477-5.292-15.057-47.378-114.49-94.809-228.96-142.23-343.43-65.9-159.09-131.88-318.16-197.52-477.35-4.678-11.344-11.621-18.397-22.935-23.074-273.34-112.99-546.61-226.17-819.77-339.59-11.71-4.862-21.863-4.639-33.462 0.176-272.87 113.26-545.82 226.32-818.87 339.15-11.67 4.822-18.88 11.955-23.708 23.636-112.97 273.35-226.17 546.6-339.58 819.77-4.719 11.368-4.537 21.246 0.153 32.545 113.52 273.48 226.81 547.06 339.96 820.7 4.386 10.607 11.008 17.287 21.678 21.698 274.26 113.39 548.44 226.96 822.54 340.74 11.142 4.625 20.685 3.641 31.543-0.867 271.94-112.89 543.99-225.52 816.02-338.2 1.539-0.638 3.032-1.419 4.617-1.904 10.693-3.275 16.962-10.465 21.157-20.836 17.108-42.301 34.754-84.385 52.219-126.54 95.739-231.1 191.49-462.19 287.18-693.31 2.515-6.075 4.307-12.449 6.286-18.246" fill="#875ea4"/></g><path d="m1356.2359 895.53107-15.6303 27.25767c-5.7184 10.10249-17.9176 14.29597-28.7825 10.2931-22.4924-8.38697-43.0786-20.39559-61.1869-35.45403-8.7681-7.24329-11.0555-20.01437-5.3372-29.92624l15.6304-27.25767c-13.1523-15.24901-23.4455-32.97602-30.3073-52.22793h-31.4512c-11.4368 0-21.3486-8.19637-23.2548-19.63315-3.8122-22.87357-4.0028-46.89081 0-70.71744 1.9062-11.43678 11.818-19.82376 23.2548-19.82376h31.4512c6.8618-19.25192 17.155-36.97892 30.3073-52.22797l-15.6304-27.25767c-5.7183-9.91188-3.6216-22.68295 5.3372-29.92625 18.1083-15.05843 38.8851-27.06705 61.1869-35.45403 10.8649-4.00286 23.0641 0.19062 28.7825 10.29311l15.6303 27.25767c20.0144-3.62166 40.41-3.62166 60.4243 0l15.6303-27.25767c5.7183-10.10249 17.9177-14.29597 28.7826-10.29311 22.4923 8.38698 43.0785 20.3956 61.1868 35.45403 8.7681 7.2433 11.0555 20.01437 5.3371 29.92625l-15.6303 27.25767c13.1524 15.24905 23.4454 32.97605 30.3075 52.22797h31.4511c11.4369 0 21.3488 8.19636 23.2548 19.63315 3.8123 22.87356 4.0029 46.89081 0 70.71743-1.906 11.43679-11.8179 19.82377-23.2548 19.82377h-31.4511c-6.8621 19.25191-17.1551 36.97892-30.3075 52.22793l15.6303 27.25767c5.7184 9.91187 3.6216 22.68295-5.3371 29.92624-18.1083 15.05844-38.8851 27.06706-61.1868 35.45403-10.8649 4.00287-23.0643-0.19061-28.7826-10.2931l-15.6303-27.25767c-19.8237 3.62165-40.4099 3.62165-60.4243 0zm-20.0144-112.08044c73.386 56.42143 157.0652-27.25766 100.6437-100.64369-73.386-56.61207-157.0652 27.25767-100.6437 100.64369zm-219.7767 293.35337 64.2366 32.0231c19.2519 11.0555 27.6389 34.501 20.0144 55.4683-16.9646 46.1283-50.3219 88.4445-81.2012 125.4235-14.1053 16.9645-38.5038 21.1581-57.7557 10.1024l-55.4684-32.0229c-30.4981 26.1139-65.9521 46.8908-104.64658 60.4243v64.046c0 22.1111-15.82083 41.1724-37.55071 44.9848-46.89084 8.0057-96.069 8.3868-144.67533 0-21.92049-3.8124-38.12261-22.683-38.12261-44.9848v-64.046c-38.69445-13.7241-74.14848-34.3104-104.64656-60.4243l-55.4684 31.8323c-19.0613 11.0556-43.65039 6.862-57.75575-10.1025-30.87931-36.9789-63.47415-79.295-80.43871-125.2328-7.62452-20.7768 0.76246-44.2221 20.01437-55.4683l63.47415-32.0231c-7.43391-39.8381-7.43391-80.8199 0-120.8486l-63.47415-32.2136c-19.25191-11.05555-27.8295-34.50096-20.01437-55.27778 16.96456-46.12832 49.5594-88.44442 80.43871-125.42335 14.10536-16.96456 38.50384-21.15804 57.75575-10.10249l55.4684 32.023c30.49808-26.11399 65.95211-46.89082 104.64656-60.42435v-64.23659c0-21.92051 15.63027-40.9818 37.36016-44.79406 46.89081-8.00576 96.25962-8.38698 144.8659-0.19062 21.9205 3.81226 38.12259 22.68295 38.12259 44.98468v64.04598c38.69448 13.72414 74.14848 34.31035 104.64658 60.42434l55.4684-32.023c19.0613-11.05555 43.6504-6.86207 57.7557 10.10249 30.8793 36.97894 63.2836 79.29503 80.2482 125.42336 7.6245 20.77682 0.1905 44.22222-19.0614 55.46839l-64.2366 32.023c7.434 40.0287 7.434 81.0105 0 121.0392zm-224.1609 40.2194c112.843-146.77202-54.70594-314.32084-201.47797-201.47796-112.84292 146.77206 54.70595 314.32086 201.47797 201.47796zm463.952 348.2501-15.6303 27.2577c-5.7184 10.1025-17.9176 14.296-28.7825 10.2931-22.4924-8.3869-43.0786-20.3956-61.1869-35.454-8.7681-7.2433-11.0555-20.0144-5.3372-29.9263l15.6304-27.2577c-13.1523-15.249-23.4455-32.976-30.3073-52.2279h-31.4512c-11.4368 0-21.3486-8.1964-23.2548-19.6331-3.8122-22.8736-4.0028-46.891 0-70.7176 1.9062-11.4368 11.818-19.8238 23.2548-19.8238h31.4512c6.8618-19.2519 17.155-36.9789 30.3073-52.228l-15.6304-27.2576c-5.7183-9.9118-3.6216-22.6829 5.3372-29.9263 18.1083-15.0584 38.8851-27.067 61.1869-35.454 10.8649-4.0028 23.0641 0.1907 28.7825 10.2932l15.6303 27.2576c20.0144-3.6217 40.41-3.6217 60.4243 0l15.6303-27.2576c5.7183-10.1025 17.9177-14.296 28.7826-10.2932 22.4923 8.387 43.0785 20.3956 61.1868 35.454 8.7681 7.2434 11.0555 20.0145 5.3371 29.9263l-15.6303 27.2576c13.1524 15.2491 23.4454 32.9761 30.3075 52.228h31.4511c11.4369 0 21.3488 8.1964 23.2548 19.6332 3.8123 22.8736 4.0029 46.8909 0 70.7175-1.906 11.4369-11.8179 19.8238-23.2548 19.8238h-31.4511c-6.8621 19.2519-17.1551 36.9789-30.3075 52.2279l15.6303 27.2577c5.7184 9.9119 3.6216 22.683-5.3371 29.9263-18.1083 15.0584-38.8851 27.0671-61.1868 35.454-10.8649 4.0029-23.0643-0.1906-28.7826-10.2931l-15.6303-27.2577c-19.8237 3.6216-40.4099 3.6216-60.4243 0zm-20.0144-112.2711c73.386 56.4215 157.0652-27.2576 100.6437-100.6437-73.386-56.4215-157.0652 27.2576-100.6437 100.6437z" fill="#875ea4" stroke-width="1.90613055"/></g></svg>
