<?xml version="1.0" encoding="UTF-8"?>
<!-- Created with Inkscape (http://www.inkscape.org/) -->
<svg width="256mm" height="107.055mm" inkscape:version="0.92.3 (2405546, 2018-03-11)" sodipodi:docname="drawing.svg" version="1.1" viewBox="0 0 256 107.055" xmlns="http://www.w3.org/2000/svg" xmlns:cc="http://creativecommons.org/ns#" xmlns:dc="http://purl.org/dc/elements/1.1/" xmlns:inkscape="http://www.inkscape.org/namespaces/inkscape" xmlns:rdf="http://www.w3.org/1999/02/22-rdf-syntax-ns#" xmlns:sodipodi="http://sodipodi.sourceforge.net/DTD/sodipodi-0.dtd">
  <sodipodi:namedview id="base" bordercolor="#666666" borderopacity="1.0" inkscape:current-layer="layer1" inkscape:cx="459.62254" inkscape:cy="214.93476" inkscape:document-units="mm" inkscape:pagecheckerboard="true" inkscape:pageopacity="0.0" inkscape:pageshadow="2" inkscape:window-height="1043" inkscape:window-maximized="1" inkscape:window-width="1869" inkscape:window-x="1971" inkscape:window-y="0" inkscape:zoom="0.98994949" pagecolor="#ffffff" showgrid="false"/>
  <metadata>
    <rdf:RDF>
      <cc:Work rdf:about="">
        <dc:format>image/svg+xml</dc:format>
        <dc:type rdf:resource="http://purl.org/dc/dcmitype/StillImage"/>
        <dc:title/>
      </cc:Work>
    </rdf:RDF>
  </metadata>
  <g transform="translate(0,-189.945)" inkscape:groupmode="layer" inkscape:label="Layer 1">
    <path d="m120.5526 296.8849c-0.0703-0.0798-0.0882-7.24643-0.0882-35.32956v-35.22943h8.74491v35.23149c0 30.43993-0.0137 35.24519-0.10075 35.33224-0.15024 0.15024-8.42359 0.14565-8.556-5e-3zm25.38843 0c-0.0703-0.0798-0.0882-7.24643-0.0882-35.32956v-35.22943h8.74491v35.23149c0 30.43993-0.0137 35.24519-0.10075 35.33224-0.15024 0.15024-8.42359 0.14565-8.556-5e-3zm-145.8424286-20.87493c-0.13937-0.1583-0.127216-8.39887 0.01259-8.53867 0.08696-0.087 3.71691995-0.10075 26.51680365-0.10075h26.416061v8.7449l-26.42865-3e-3c-22.7374687-2e-3 -26.44096165-0.0167-26.51680465-0.1028zm69.58898065-42.88359c0-37.16316 0.01365-43.00272 0.100748-43.08981 0.150801-0.1508 8.392606-0.1508 8.543406 0 0.0871 0.0871 0.10075 5.92665 0.10075 43.08981v42.98907h-8.744904zm25.388434 18.0943v-24.89477h8.744904v49.78954h-8.744904zm76.165284 0v-24.89477h8.74491v49.78954h-8.74491zm25.38843 8.46281v-16.43196h8.74491v32.86392h-8.74491zm25.38843 4.23141v-12.20055h8.74491v24.4011h-8.74491zm25.38843-12.69422v-24.89477h4.20118c3.547 0 4.21687 0.0157 4.30193 0.10075 0.15209 0.15209 0.15209 49.43595 0 49.58804-0.0851 0.0851-0.75493 0.10075-4.30193 0.10075h-4.20118zm-247.3079886-16.25535c-0.13937-0.1583-0.127216-8.39886 0.01259-8.53867 0.08678-0.0868 2.54152895-0.10075 17.70137665-0.10075h17.60063v8.74491l-17.613223-3e-3c-15.1229697-2e-3 -17.62568665-0.0165-17.70137765-0.10249zm196.5311286-4.26697v-4.37245h8.74491v8.74491h-8.74491zm-196.5311286-32.26417c-0.06841-0.0777-0.08815-1.04037-0.08815-4.29925v-4.19912h26.41605665c22.799884 0 26.429848 0.0138 26.516804 0.10075 0.08506 0.0851 0.100748 0.75493 0.100748 4.30193v4.20118l-26.42865-3e-3c-22.7374687-2e-3 -26.44096165-0.0163-26.51680465-0.10249z" fill="#fff" stroke-width=".07052343" inkscape:connector-curvature="0"/>
  </g>
</svg>
